<?xml version="1.0" encoding="UTF-8" standalone="no"?>
<svg
   xmlns:dc="http://purl.org/dc/elements/1.1/"
   xmlns:cc="http://creativecommons.org/ns#"
   xmlns:rdf="http://www.w3.org/1999/02/22-rdf-syntax-ns#"
   xmlns:svg="http://www.w3.org/2000/svg"
   xmlns="http://www.w3.org/2000/svg"
   xmlns:xlink="http://www.w3.org/1999/xlink"
   xmlns:sodipodi="http://sodipodi.sourceforge.net/DTD/sodipodi-0.dtd"
   xmlns:inkscape="http://www.inkscape.org/namespaces/inkscape"
   width="933"
   height="415"
   viewBox="0 0 246.85626 109.80208"
   version="1.1"
   id="svg8"
   inkscape:version="1.0.2 (e86c870879, 2021-01-15, custom)"
   sodipodi:docname="inkscape_scientific.svg">
  <defs
     id="defs2">
    <linearGradient
       gradientUnits="userSpaceOnUse"
       id="linearGradient5785">
      <stop
         id="stop5787"
         offset="0"
         style="stop-color:#c0cdf9;stop-opacity:1" />
      <stop
         id="stop5789"
         offset="1"
         style="stop-color:#07092d;stop-opacity:0.28804347" />
    </linearGradient>
    <linearGradient
       gradientUnits="userSpaceOnUse"
       y2="60"
       x2="58"
       y1="35"
       x1="33"
       xlink:href="#WhiteTransparent-4"
       id="shinySpecular-4"
       gradientTransform="matrix(1.009184,0,0,1.009184,-0.3890738,-0.3831933)" />
    <linearGradient
       gradientUnits="userSpaceOnUse"
       id="WhiteTransparent-4">
      <stop
         id="stop7606-4"
         offset="0"
         style="stop-color:white;stop-opacity:1" />
      <stop
         id="stop7608-7"
         offset="1"
         style="stop-color:white;stop-opacity:0" />
    </linearGradient>
    <linearGradient
       gradientUnits="userSpaceOnUse"
       y2="50"
       x2="90"
       y1="20"
       x1="60"
       xlink:href="#WhiteTransparent-4"
       id="IcecapTip-6" />
  </defs>
  <sodipodi:namedview
     id="base"
     pagecolor="#ffffff"
     bordercolor="#666666"
     borderopacity="1.0"
     inkscape:pageopacity="0.0"
     inkscape:pageshadow="2"
     inkscape:zoom="0.60905348"
     inkscape:cx="530.0062"
     inkscape:cy="438.26923"
     inkscape:document-units="mm"
     inkscape:current-layer="layer1"
     inkscape:document-rotation="0"
     showgrid="false"
     inkscape:window-width="1904"
     inkscape:window-height="1014"
     inkscape:window-x="0"
     inkscape:window-y="0"
     inkscape:window-maximized="1"
     units="px" />
  <metadata
     id="metadata5">
    <rdf:RDF>
      <cc:Work
         rdf:about="">
        <dc:format>image/svg+xml</dc:format>
        <dc:type
           rdf:resource="http://purl.org/dc/dcmitype/StillImage" />
        <dc:title></dc:title>
      </cc:Work>
    </rdf:RDF>
  </metadata>
  <g
     inkscape:label="Layer 1"
     inkscape:groupmode="layer"
     id="layer1"
     transform="translate(-9.4108884,-10.848348)">
    <rect
       style="fill:#ffffff;fill-rule:evenodd;stroke:none;stroke-width:0.264583;stop-color:#000000"
       id="rect1048"
       width="217.461"
       height="109.20581"
       x="24.28421"
       y="11.42452" />
    <g
       id="g7498"
       transform="matrix(0.26458333,0,0,0.26458333,-1.4758907,44.053341)">
      <path
         d="m 139.06411,694.98079 c -0.24215,-9.92803 -0.36322,-15.49741 -0.36322,-25.54651 0,-10.0491 0,-15.9817 0.36322,-26.15187 0.24215,-10.0491 1.93718,-10.41232 10.41232,-11.01769 0.72644,-0.72644 0.72644,-2.05825 0,-2.78469 -4.47972,0.24215 -11.98628,0.60537 -15.61848,0.60537 -3.6322,0 -11.8652,-0.36322 -15.73955,-0.60537 -0.72644,0.72644 -0.72644,2.05825 0,2.78469 8.47514,0.72644 10.41232,0.96859 10.65446,11.01769 0.24215,10.0491 0.36322,15.9817 0.36322,26.0308 0,10.0491 -0.12107,15.61848 -0.36322,25.66758 -0.24214,10.04909 -2.17932,10.65446 -10.65446,11.01768 -0.72644,0.72644 -0.72644,2.05825 0,2.78469 4.72186,-0.24214 12.10735,-0.60536 15.73955,-0.60536 3.6322,0 10.65447,0.24214 15.61848,0.60536 0.72644,-0.72644 0.72644,-2.05825 0,-2.78469 -8.47514,-0.36322 -10.17017,-0.96859 -10.41232,-11.01768 z"
         style="font-style:normal;font-variant:normal;font-weight:normal;font-stretch:normal;font-size:121.073px;line-height:100%;font-family:'Linux Libertine Display O';-inkscape-font-specification:'Linux Libertine Display O';letter-spacing:0px;word-spacing:0px;fill:#000000;fill-opacity:1;stroke:none;stroke-width:0.908051px;stroke-linecap:butt;stroke-linejoin:miter;stroke-opacity:1"
         id="path7131"
         inkscape:connector-curvature="0" />
      <path
         d="m 222.38348,644.61422 0.12107,42.01249 c 0,2.3004 -0.60537,3.63221 -1.45288,3.63221 -0.96859,0 -2.3004,-2.17932 -5.81153,-6.65904 l -41.5282,-53.51448 -15.61848,-0.24215 c -0.72645,0.72644 -0.72645,2.05825 0,2.78469 5.81152,0.36322 8.83836,4.23757 10.17017,8.95944 l -0.12108,52.0616 c 0,10.77554 -2.05824,11.50198 -10.53339,12.34949 -0.72644,0.72644 -0.72644,2.05825 0,2.78469 5.9326,-0.12107 7.99085,-0.60536 13.07594,-0.60536 5.08508,0 6.90119,0.48429 12.95486,0.60536 0.72644,-0.72644 0.72644,-2.05825 0,-2.78469 -8.47514,-0.84751 -10.53339,-1.33181 -10.53339,-12.34949 l -0.12108,-38.62245 c 0,-4.11649 0.60537,-5.9326 1.57396,-5.9326 0.72644,0 2.05825,1.33181 4.1165,3.99543 l 42.25465,53.39341 c 1.3318,1.8161 2.90576,2.90576 4.84293,2.90576 1.69503,0 1.45289,-1.45288 1.45289,-3.75328 l 0.12107,-61.02103 c 0,-10.77555 2.05825,-11.50199 10.53339,-12.3495 0.72644,-0.72644 0.72644,-2.05825 0,-2.78469 -5.9326,0.12107 -7.99085,0.60537 -13.07593,0.60537 -5.08509,0 -6.90119,-0.4843 -12.95487,-0.60537 -0.72644,0.72644 -0.72644,2.05825 0,2.78469 8.47515,0.84751 10.5334,1.33181 10.5334,12.3495 z"
         style="font-style:normal;font-variant:normal;font-weight:normal;font-stretch:normal;font-size:121.073px;line-height:100%;font-family:'Linux Libertine Display O';-inkscape-font-specification:'Linux Libertine Display O';letter-spacing:0px;word-spacing:0px;fill:#000000;fill-opacity:1;stroke:none;stroke-width:0.908051px;stroke-linecap:butt;stroke-linejoin:miter;stroke-opacity:1"
         id="path7133"
         inkscape:connector-curvature="0" />
      <path
         d="m 265.81292,694.98079 c -0.24215,-9.68588 -0.36322,-15.25526 -0.36322,-24.82007 4.23757,0.12107 8.47514,2.05825 11.01769,5.20616 l 19.00853,23.97255 c 2.42147,3.14791 4.1165,6.78012 4.35865,8.71729 0,0.36322 0.12107,0.72644 0.60537,0.72644 2.42147,-0.12107 2.17932,-0.60536 5.81152,-0.60536 4.72187,0 7.74871,0.48429 13.43916,0.60536 0.72644,-0.72644 0.72644,-2.05825 0,-2.78469 -2.17932,-0.36322 -7.7487,-1.57395 -11.8652,-6.65904 l -26.51509,-31.47911 c -0.96859,-1.08966 -1.57396,-2.05824 -1.57396,-3.02683 0,-0.84752 0.12107,-1.69503 4.23757,-5.9326 l 17.79781,-18.2821 c 5.56938,-5.9326 11.62305,-7.7487 16.46599,-8.35407 0.72644,-0.72644 0.72644,-2.05825 0,-2.78469 -5.69045,0.12107 -7.86978,0.60537 -12.71272,0.60537 -4.84294,0 -8.59621,-0.4843 -14.28667,-0.60537 -0.72644,0.72644 -0.72644,2.05825 0,2.78469 4.35865,0.36322 9.56481,2.42147 4.60079,7.86978 l -19.37175,21.30893 c -2.54255,2.78469 -6.53797,4.96401 -11.01769,5.32723 0,-8.47514 0.12107,-14.28667 0.36322,-23.48825 0.24215,-10.0491 2.05825,-10.65447 10.53339,-11.01769 0.72644,-0.72644 0.72644,-2.05825 0,-2.78469 -5.9326,0.12107 -9.68588,0.60537 -15.86062,0.60537 -6.05368,0 -9.44374,-0.4843 -15.49741,-0.60537 -0.72644,0.72644 -0.72644,2.05825 0,2.78469 8.47514,0.36322 10.17017,0.96859 10.41232,11.01769 0.24215,10.0491 0.48429,15.9817 0.48429,26.0308 0,10.0491 -0.24214,15.61848 -0.48429,25.66758 -0.24215,10.04909 -1.93718,10.65446 -10.41232,11.01768 -0.72644,0.72644 -0.72644,2.05825 0,2.78469 5.9326,-0.12107 9.56481,-0.60536 15.73955,-0.60536 6.05368,0 9.56481,0.48429 15.61848,0.60536 0.72644,-0.72644 0.72644,-2.05825 0,-2.78469 -8.47514,-0.36322 -10.29124,-0.96859 -10.53339,-11.01768 z"
         style="font-style:normal;font-variant:normal;font-weight:normal;font-stretch:normal;font-size:121.073px;line-height:100%;font-family:'Linux Libertine Display O';-inkscape-font-specification:'Linux Libertine Display O';letter-spacing:0px;word-spacing:0px;fill:#000000;fill-opacity:1;stroke:none;stroke-width:0.908051px;stroke-linecap:butt;stroke-linejoin:miter;stroke-opacity:1"
         id="path7135"
         inkscape:connector-curvature="0" />
      <path
         d="m 368.54187,631.78043 c -7.02226,-0.96859 -6.65904,-3.26899 -18.52424,-3.26899 -12.22842,0 -23.00396,8.11192 -23.00396,20.94571 0,11.38091 7.99085,16.82922 17.43458,20.82464 7.62763,3.39006 20.21927,6.05368 20.21927,19.85606 0,9.80695 -5.81152,16.10277 -15.37633,16.10277 -11.38091,0 -19.85605,-6.29582 -22.51967,-18.40317 -1.45288,-0.48429 -1.57395,-0.24215 -2.66362,0.36322 0.4843,9.32266 0.96859,12.47057 2.42147,18.40317 7.62763,0 10.89662,2.78469 21.67216,2.78469 5.56938,0 10.77554,-1.33181 15.01311,-3.87435 6.90119,-4.35865 11.38091,-11.8652 11.38091,-19.61391 0,-11.50198 -7.86978,-16.95028 -16.70814,-20.70356 -5.81153,-2.42147 -22.51967,-7.14334 -22.51967,-19.00854 0,-6.78011 6.41689,-14.77096 13.43916,-14.77096 11.8652,0 16.82921,8.71729 19.25068,16.70814 1.33181,0 1.57396,0.12107 2.66362,-0.72644 -0.36322,-5.81153 -0.84752,-9.20159 -2.17933,-15.61848 z"
         style="font-style:normal;font-variant:normal;font-weight:normal;font-stretch:normal;font-size:121.073px;line-height:100%;font-family:'Linux Libertine Display O';-inkscape-font-specification:'Linux Libertine Display O';letter-spacing:0px;word-spacing:0px;fill:#000000;fill-opacity:1;stroke:none;stroke-width:0.908051px;stroke-linecap:butt;stroke-linejoin:miter;stroke-opacity:1"
         id="path7137"
         inkscape:connector-curvature="0" />
      <path
         d="m 421.98069,709.38853 c 11.74413,0 23.7304,-5.56938 31.9634,-16.34492 -0.60537,-1.08966 -1.45288,-1.8161 -2.78469,-1.8161 -8.59622,9.44373 -16.82922,13.19701 -28.08905,13.19701 -18.76639,0 -28.21012,-19.00854 -28.21012,-36.68527 0,-19.73498 12.59164,-35.95882 27.8469,-35.95882 16.70814,0 23.85148,11.13876 26.99939,21.55108 1.08966,0.12107 1.8161,0 2.78469,-0.60537 -0.60537,-6.29582 -1.45289,-12.10735 -2.66362,-18.76639 -6.17475,-0.60537 -11.62305,-5.44831 -26.51509,-5.44831 -23.97255,0 -39.34889,18.76639 -39.34889,41.52821 0,21.43 11.98628,39.34888 38.01708,39.34888 z"
         style="font-style:normal;font-variant:normal;font-weight:normal;font-stretch:normal;font-size:121.073px;line-height:100%;font-family:'Linux Libertine Display O';-inkscape-font-specification:'Linux Libertine Display O';letter-spacing:0px;word-spacing:0px;fill:#000000;fill-opacity:1;stroke:none;stroke-width:0.908051px;stroke-linecap:butt;stroke-linejoin:miter;stroke-opacity:1"
         id="path7139"
         inkscape:connector-curvature="0" />
      <path
         d="m 489.70806,674.51937 c -2.66362,0 -3.51113,-0.96859 -3.02684,-2.17933 l 12.71272,-31.35803 h 0.36322 l 11.62305,33.53736 z m -13.68131,25.30435 7.26441,-18.76639 c 0.60537,-1.57395 1.33181,-2.66361 4.23757,-2.66361 h 25.30436 l 7.62763,22.27752 c 1.69503,4.96401 -3.14791,4.96401 -8.95944,5.32723 -0.72644,0.72644 -0.72644,2.05825 0,2.78469 4.47972,-0.12107 11.13877,-0.60536 15.86063,-0.60536 4.96401,0 10.17017,0.48429 14.64989,0.60536 0.72644,-0.72644 0.72644,-2.05825 0,-2.78469 -4.72186,-0.36322 -8.71729,-0.84751 -10.89661,-7.02226 l -25.30436,-70.46477 c -1.8161,1.08966 -4.72187,2.42147 -6.29582,2.42147 l -28.08905,66.10612 c -3.14791,7.38549 -6.78011,8.59622 -12.10735,8.95944 -0.72644,0.72644 -0.72644,2.05825 0,2.78469 4.47972,-0.12107 7.26441,-0.60536 11.98628,-0.60536 4.96401,0 8.59621,0.48429 13.07593,0.60536 0.72644,-0.72644 0.72644,-2.05825 0,-2.78469 -4.60079,-0.24214 -10.29124,-1.08966 -8.35407,-6.17475 z"
         style="font-style:normal;font-variant:normal;font-weight:normal;font-stretch:normal;font-size:121.073px;line-height:100%;font-family:'Linux Libertine Display O';-inkscape-font-specification:'Linux Libertine Display O';letter-spacing:0px;word-spacing:0px;fill:#000000;fill-opacity:1;stroke:none;stroke-width:0.908051px;stroke-linecap:butt;stroke-linejoin:miter;stroke-opacity:1"
         id="path7141"
         inkscape:connector-curvature="0" />
      <path
         d="m 565.52655,672.34004 c 2.66362,0.84752 6.17475,1.08966 10.29125,1.08966 22.03537,0 28.33119,-13.80237 28.33119,-24.09362 0,-7.14333 -4.47971,-20.46142 -26.87831,-20.46142 -3.14791,0 -11.62305,1.21074 -16.46599,1.21074 -6.05368,0 -9.44374,-0.4843 -15.49741,-0.60537 -0.72644,0.72644 -0.72644,2.05825 0,2.78469 8.47514,0.36322 10.29125,0.96859 10.41232,11.01769 0.12107,10.0491 0.24215,15.9817 0.24215,26.0308 0,10.0491 0,15.61848 -0.24215,25.66758 -0.24215,10.17017 -1.93718,10.65446 -10.41232,11.01768 -0.72644,0.72644 -0.72644,2.05825 0,2.78469 5.9326,-0.12107 9.56481,-0.60536 15.73955,-0.60536 6.78012,0 11.13876,0.48429 17.19244,0.60536 0.72644,-0.72644 0.72644,-2.05825 0,-2.78469 -8.35407,-0.48429 -12.3495,-1.08966 -12.47057,-8.11192 -0.12107,-9.08051 -0.24215,-16.82922 -0.24215,-25.54651 z m 0.24215,-34.74809 c 0.12107,-3.51113 2.05825,-5.81152 10.77554,-5.81152 8.35407,0 16.95029,4.35864 16.95029,19.73497 0,13.07594 -6.65904,19.00854 -18.40317,19.00854 -2.90577,0 -7.99085,-0.24215 -9.56481,-0.60537 v -0.60536 c 0,-10.0491 0.12108,-21.67216 0.24215,-31.72126 z"
         style="font-style:normal;font-variant:normal;font-weight:normal;font-stretch:normal;font-size:121.073px;line-height:100%;font-family:'Linux Libertine Display O';-inkscape-font-specification:'Linux Libertine Display O';letter-spacing:0px;word-spacing:0px;fill:#000000;fill-opacity:1;stroke:none;stroke-width:0.908051px;stroke-linecap:butt;stroke-linejoin:miter;stroke-opacity:1"
         id="path7143"
         inkscape:connector-curvature="0" />
      <path
         d="m 647.32304,664.95456 -14.1656,0.12107 c 0,0 -0.12107,-16.46599 0.24215,-26.39402 0.12107,-2.90576 1.57395,-5.32723 4.47972,-5.32723 h 18.88746 c 9.08051,0 10.89662,6.4169 13.56023,14.77097 1.45288,0.24214 1.69503,0 2.90577,-0.60537 -0.60537,-4.96401 -2.42147,-16.95029 -2.66362,-17.91888 0,-0.24214 -0.12107,-0.36322 -0.48429,-0.36322 -2.05825,0.36322 -3.14791,0.84752 -6.05368,0.84752 h -35.35346 c -3.6322,0 -9.68588,-0.4843 -15.73955,-0.60537 -0.72644,0.72644 -0.72644,2.05825 0,2.78469 8.47514,0.36322 10.0491,0.96859 10.41232,11.01769 0.24215,9.92802 0.24215,15.9817 0.24215,26.0308 0,10.0491 0,15.73955 -0.24215,25.66758 -0.36322,10.04909 -1.93718,10.65446 -10.41232,11.01768 -0.72644,0.72644 -0.72644,2.05825 0,2.78469 5.9326,-0.12107 12.3495,-0.60536 15.9817,-0.60536 h 26.87831 c 5.81153,0 15.49741,0.60536 15.49741,0.60536 1.69503,-6.05367 3.39006,-14.40774 4.35865,-20.58249 -1.21074,-0.72644 -1.33181,-0.96859 -2.90577,-0.60537 -2.42147,8.71729 -6.78011,17.43458 -15.9817,17.43458 h -18.88746 c -2.66362,0 -4.35865,-1.93717 -4.47972,-5.20616 -0.36322,-10.17017 -0.24215,-31.35803 -0.24215,-31.35803 l 14.1656,0.12108 c 10.29125,0.12107 10.77554,2.66361 11.13876,8.11192 0.72644,0.72644 1.93718,0.72644 2.66362,0 -0.12108,-4.23757 -0.4843,-5.69045 -0.4843,-9.44373 0,-3.99543 0.36322,-6.78012 0.4843,-10.41232 -0.72644,-0.72644 -1.93718,-0.72644 -2.66362,0 -0.36322,6.65904 -0.84751,8.11192 -11.13876,8.11192 z"
         style="font-style:normal;font-variant:normal;font-weight:normal;font-stretch:normal;font-size:121.073px;line-height:100%;font-family:'Linux Libertine Display O';-inkscape-font-specification:'Linux Libertine Display O';letter-spacing:0px;word-spacing:0px;fill:#000000;fill-opacity:1;stroke:none;stroke-width:0.908051px;stroke-linecap:butt;stroke-linejoin:miter;stroke-opacity:1"
         id="path7145"
         inkscape:connector-curvature="0" />
    </g>
    <g
       id="inkscape-logo"
       transform="matrix(0.21941348,0,0,0.21941346,45.936801,12.185506)"
       style="stroke-width:1.13357">
      <g
         id="g1039"
         transform="translate(-49.457653,4.0049172)"
         style="stroke-width:1.13357">
        <path
           d="M 163.15,27.83 28.81,165.3 C -16.58,221.51 59.7,214.97 92.4,231.16 104.13,243.15 47.44,252 59.17,264 c 11.73,11.99 70.93,23.1 82.68,35.09 11.73,11.99 -24.01,24.71 -12.28,36.7 11.73,11.99 38.86,0.63 43.94,28.31 3.62,19.78 48.89,8.5 71.03,-7.7 11.73,-12 -22.44,-10.87 -10.71,-22.86 29.17,-29.83 56.33,-10.84 66.31,-40.73 4.93,-14.77 -42.94,-22.77 -31.19,-34.76 33.75,-19.71 150.4,-32.54 95.05,-87.89 L 224.75,27.83 c -17.03,-16.35 -45.45,-16.53 -61.6,0 z m 154.31,264.98 c 0,6.82 50.25,11.29 50.25,-1.61 -7.16,-20.72 -44.31,-19.32 -50.25,1.61 z M 91.1,329.05 c 11.9,10.29 30.28,-2.56 35.79,-16.92 -11.53,-15.32 -54.69,0.55 -35.79,16.92 z m 220.06,-22.23 c -15.34,13.76 1.72,27.72 16.84,18.83 3.37,-3.42 -0.09,-15.41 -16.84,-18.83 z"
           id="path2313"
           inkscape:connector-curvature="0"
           style="fill:#000000;fill-opacity:1;stroke-width:1.13357" />
        <path
           d="m 131,238.6 c 3.59,2.23 57.89,13.26 71.16,15.46 4.6,0.97 1.34,5.71 -5,8.91 -14.3,3.8 -83.66,-24.37 -66.16,-24.37 z"
           id="path2315"
           style="fill:#ffffff;stroke-width:1.13357"
           inkscape:connector-curvature="0" />
        <path
           d="m 216.63,37.47 53.15,53.98 c 5.04,5.15 4.97,15.13 2.15,18 L 245.54,88.34 240.35,119.6 218.3,107.96 182.99,130.27 171.3,83.24 152.33,116.06 h -29 c -11.82,0 -13.21,-15 -2.47,-25.74 18.76,-20.25 40.29,-40.89 51.99,-52.85 11.76,-12.02 32.25,-11.68 43.78,0 z"
           id="path2317"
           style="fill:#ffffff;stroke-width:1.13357"
           inkscape:connector-curvature="0" />
      </g>
    </g>
    <g
       style="overflow:scroll;stroke-width:2.28303"
       id="g1030"
       transform="matrix(0.11589126,0,0,0.11589126,100.14204,63.804434)">
      <g
         id="g1046"
         transform="matrix(0.87940815,0,0,0.87940815,99.635929,59.718555)"
         style="stroke-width:2.5961">
        <path
           d="M 5.46,4.23 H 5.21 c -0.1,1.02 -0.24,2.26 -2,2.26 H 2.4 C 1.93,6.49 1.91,6.42 1.91,6.09 V 0.78 c 0,-0.34 0,-0.48 0.94,-0.48 H 3.18 V 0 C 2.82,0.03 1.92,0.03 1.51,0.03 1.12,0.03 0.34,0.03 0,0 V 0.3 H 0.23 C 1,0.3 1.02,0.41 1.02,0.77 V 6.02 C 1.02,6.38 1,6.49 0.23,6.49 H 0 V 6.8 h 5.19 z"
           transform="matrix(45,0,0,45,40,47.65)"
           id="path1007"
           style="stroke-width:2.5961" />
        <path
           d="M 2.81,0.16 C 2.77,0.04 2.75,0 2.62,0 2.49,0 2.46,0.04 2.42,0.16 L 0.81,4.24 C 0.74,4.41 0.62,4.72 0,4.72 V 4.97 H 1.55 V 4.72 c -0.31,0 -0.5,-0.14 -0.5,-0.34 0,-0.05 0.01,-0.07 0.03,-0.14 0,0 0.34,-0.86 0.34,-0.86 H 3.4 L 3.8,4.4 c 0.02,0.04 0.04,0.09 0.04,0.12 0,0.2 -0.38,0.2 -0.57,0.2 V 4.97 H 5.24 V 4.72 H 5.1 c -0.47,0 -0.52,-0.07 -0.59,-0.27 0,0 -1.7,-4.29 -1.7,-4.29 z M 2.41,0.87 3.3,3.13 H 1.52 Z"
           transform="matrix(45,0,0,45,151.6,40)"
           id="path1009"
           style="stroke-width:2.5961" />
        <path
           d="M 6.27,0 H 0.18 C 0.18,0 0,2.24 0,2.24 H 0.24 C 0.38,0.63 0.53,0.3 2.04,0.3 c 0.18,0 0.44,0 0.54,0.02 0.21,0.04 0.21,0.15 0.21,0.38 v 5.25 c 0,0.34 0,0.48 -1.05,0.48 H 1.34 V 6.74 C 1.75,6.71 2.76,6.71 3.22,6.71 c 0.46,0 1.49,0 1.9,0.03 V 6.43 H 4.72 C 3.67,6.43 3.67,6.29 3.67,5.95 V 0.7 c 0,-0.2 0,-0.34 0.18,-0.38 C 3.96,0.3 4.23,0.3 4.42,0.3 c 1.5,0 1.65,0.33 1.79,1.94 H 6.46 C 6.46,2.24 6.27,0 6.27,0 Z"
           transform="matrix(45,0,0,45,356.35,50.35)"
           id="path1011"
           style="stroke-width:2.5961" />
        <path
           d="M 6.16,4.2 H 5.91 C 5.66,5.73 5.43,6.46 3.72,6.46 H 2.4 C 1.93,6.46 1.91,6.39 1.91,6.06 V 3.4 H 2.8 c 0.97,0 1.08,0.32 1.08,1.17 H 4.13 V 1.93 H 3.88 C 3.88,2.78 3.77,3.09 2.8,3.09 H 1.91 V 0.7 C 1.91,0.37 1.93,0.3 2.4,0.3 h 1.28 c 1.53,0 1.79,0.55 1.95,1.94 H 5.88 L 5.6,0 H 0 V 0.3 H 0.23 C 1,0.3 1.02,0.41 1.02,0.77 V 5.99 C 1.02,6.35 1,6.46 0.23,6.46 H 0 v 0.31 h 5.74 z"
           transform="matrix(45,0,0,45,602.5,150.25)"
           id="path1013"
           style="stroke-width:2.5961" />
        <path
           d="m 3.76,2.95 1.37,-2 C 5.34,0.63 5.68,0.31 6.57,0.3 V 0 H 4.19 v 0.3 c 0.4,0.01 0.62,0.23 0.62,0.46 0,0.1 -0.02,0.12 -0.09,0.23 0,0 -1.14,1.68 -1.14,1.68 L 2.3,0.75 C 2.28,0.72 2.23,0.64 2.23,0.6 2.23,0.48 2.45,0.31 2.87,0.3 V 0 C 2.53,0.03 1.8,0.03 1.42,0.03 1.11,0.03 0.49,0.02 0.12,0 v 0.3 h 0.19 c 0.55,0 0.74,0.07 0.93,0.35 0,0 1.83,2.77 1.83,2.77 L 1.44,5.83 C 1.3,6.03 1,6.49 0,6.49 V 6.8 H 2.38 V 6.49 C 1.92,6.48 1.75,6.21 1.75,6.03 1.75,5.94 1.78,5.9 1.85,5.79 L 3.26,3.7 4.84,6.08 c 0.02,0.04 0.05,0.08 0.05,0.11 0,0.12 -0.22,0.29 -0.65,0.3 V 6.8 C 4.59,6.77 5.32,6.77 5.69,6.77 c 0.42,0 0.88,0.01 1.3,0.03 V 6.49 H 6.8 c -0.52,0 -0.73,-0.05 -0.94,-0.36 0,0 -2.1,-3.18 -2.1,-3.18 z"
           transform="matrix(45,0,0,45,845.95,47.65)"
           id="path1015"
           style="stroke-width:2.5961" />
      </g>
    </g>
    <text
       xml:space="preserve"
       style="font-size:33.6817px;line-height:1.25;font-family:sans-serif;-inkscape-font-specification:'sans-serif, Normal';letter-spacing:0px;word-spacing:0px;writing-mode:lr-tb;direction:rtl;stroke-width:0.264583"
       x="152.33228"
       y="69.97773"
       id="text1034"><tspan
         sodipodi:role="line"
         id="tspan1032"
         x="152.33228"
         y="69.97773"
         style="stroke-width:0.264583">+</tspan></text>
  </g>
</svg>
